Coordinates
version=1
nRows=17
nColumns=63
inDegrees=yes

Units are S.I. units (second, meters, Newtons, ...)
If the header above contains a line with 'inDegrees', this indicates whether rotational values are in degrees (yes) or radians (no).

endheader
time	pelvis_tilt	pelvis_list	pelvis_rotation	pelvis_tx	pelvis_ty	pelvis_tz	hip_flexion_r	hip_adduction_r	hip_rotation_r	knee_angle_r	knee_angle_r_beta	ankle_angle_r	subtalar_angle_r	mtp_angle_r	hip_flexion_l	hip_adduction_l	hip_rotation_l	knee_angle_l	knee_angle_l_beta	ankle_angle_l	subtalar_angle_l	mtp_angle_l	L5_S1_Flex_Ext	L5_S1_Lat_Bending	L5_S1_axial_rotation	L4_L5_Flex_Ext	L4_L5_Lat_Bending	L4_L5_axial_rotation	L3_L4_Flex_Ext	L3_L4_Lat_Bending	L3_L4_axial_rotation	L2_L3_Flex_Ext	L2_L3_Lat_Bending	L2_L3_axial_rotation	L1_L2_Flex_Ext	L1_L2_Lat_Bending	L1_L2_axial_rotation	L1_T12_Flex_Ext	L1_T12_Lat_Bending	L1_T12_axial_rotation	Abs_r3	Abs_r2	Abs_r1	Abs_t1	Abs_t2	neck_flexion	neck_bending	neck_rotation	arm_flex_r	arm_add_r	arm_rot_r	elbow_flex_r	pro_sup_r	wrist_flex_r	wrist_dev_r	arm_flex_l	arm_add_l	arm_rot_l	elbow_flex_l	pro_sup_l	wrist_flex_l	wrist_dev_l
1.616667	5.209128	-21.875836	92.195005	0.155522	1.037523	0.497713	45.268808	4.432737	0.371737	35.772151	0.624342	45.330628	-6.464854	0.000000	43.178070	-4.755812	-4.941320	32.518078	0.567548	50.252547	19.410280	0.000000	0.596148	0.211125	-0.253766	1.107107	0.280796	-0.269626	0.979412	0.513328	-0.269626	0.681338	0.513328	-0.222045	0.553583	0.430525	-0.206185	0.340639	0.327032	-0.190325	4.258227	2.388284	-1.411370	0.000000	0.000000	27.325540	12.052400	23.740120	50.477882	-14.595321	117.358845	4.034256	1.801834	-9.494568	-15.558311	53.929412	-7.778327	132.900748	0.435457	0.858845	-11.613081	-16.995306
1.633333	4.552986	-20.124261	91.656802	0.155600	1.048270	0.495281	42.041555	4.093916	0.716449	33.411846	0.583147	43.942919	-5.605519	0.000000	39.578205	-4.240434	-4.697795	29.679768	0.518010	48.446746	18.060535	0.000000	0.428392	0.105340	-0.073631	0.795568	0.140103	-0.078233	0.703806	0.256124	-0.078233	0.489610	0.256124	-0.064427	0.397805	0.214810	-0.059825	0.244783	0.163172	-0.055223	3.059964	1.191631	-0.409512	0.000000	0.000000	26.306318	10.798718	19.621294	54.685733	-15.620873	122.304107	2.807241	1.450358	-7.754343	-17.123034	59.166175	-7.927045	137.012787	0.412033	0.915495	-14.869437	-17.815511
1.650000	3.933955	-17.921998	91.069237	0.155385	1.059837	0.493877	38.279068	3.735464	0.824858	30.966948	0.540475	42.374869	-4.493707	0.000000	35.459394	-3.678994	-4.049051	26.700571	0.466013	46.403870	16.126853	0.000000	0.216714	0.011828	-0.043365	0.402459	0.015731	-0.046076	0.356039	0.028758	-0.046076	0.247682	0.028758	-0.037945	0.201240	0.024119	-0.035234	0.123830	0.018321	-0.032524	1.547963	0.133796	-0.241185	0.000000	0.000000	24.732697	9.436726	16.092440	52.425619	-12.374847	123.930438	-3.078571	-2.604263	-0.457343	-20.583079	64.525474	-9.047042	142.209913	0.384992	1.025964	-19.152861	-18.607698
1.666667	3.348367	-15.787921	90.513875	0.155257	1.071517	0.491906	34.370834	3.389353	0.920476	28.304822	0.494012	40.497898	-3.637469	0.000000	31.290968	-3.097377	-2.888002	23.565253	0.411291	44.064746	13.633032	0.000000	0.018387	-0.083057	0.044488	0.034146	-0.110466	0.047268	0.030207	-0.201944	0.047268	0.021014	-0.201944	0.038927	0.017074	-0.169370	0.036146	0.010506	-0.128655	0.033366	0.131333	-0.939556	0.247427	0.000000	0.000000	23.235184	8.238722	12.257590	54.051016	-11.879870	126.476387	-6.195381	-4.587416	5.918704	-22.720131	69.876708	-9.803382	147.835760	0.327711	1.087800	-24.223526	-19.375998
1.683333	2.830717	-13.799087	90.010034	0.155255	1.082905	0.489464	30.442448	3.071227	0.990976	25.497113	0.445009	38.351329	-3.108623	0.000000	27.233639	-2.527737	-1.269553	20.407943	0.356186	41.486877	10.679077	0.000000	-0.159711	-0.175778	0.191151	-0.296600	-0.233784	0.203098	-0.262390	-0.427386	0.203098	-0.182534	-0.427386	0.167257	-0.148308	-0.358446	0.155310	-0.091259	-0.272280	0.143363	-1.140802	-1.988433	1.063126	0.000000	0.000000	21.858696	7.214045	8.202430	58.612930	-13.620746	129.012519	-6.623920	-4.775131	11.410619	-23.689995	75.217549	-10.176328	153.454399	0.259245	1.137335	-29.847450	-20.186578
1.700000	2.398927	-12.009429	89.568195	0.155356	1.093614	0.486745	26.617107	2.793518	1.054596	22.637762	0.395103	36.015900	-2.899917	0.000000	23.423115	-1.993602	0.722262	17.357698	0.302949	38.739522	7.370356	0.000000	-0.313901	-0.261268	0.383254	-0.582946	-0.347486	0.407207	-0.515708	-0.635246	0.407207	-0.358758	-0.635246	0.335347	-0.291489	-0.532777	0.311394	-0.179363	-0.404704	0.287440	-2.242166	-2.955513	2.131543	0.000000	0.000000	20.615788	6.374422	4.242940	66.097008	-17.178031	131.619690	-4.620991	-3.420041	16.017253	-23.711051	80.555069	-10.242790	158.787842	0.192647	1.178210	-35.749894	-21.030694
1.716667	2.070039	-10.478634	89.198406	0.155593	1.103304	0.483872	23.026939	2.559518	1.099207	19.820851	0.345939	33.579953	-2.934801	0.000000	19.994681	-1.513601	2.989729	14.534337	0.253672	35.897360	3.832752	0.000000	-0.438886	-0.336644	0.606194	-0.815055	-0.447736	0.644081	-0.721046	-0.818516	0.644081	-0.501603	-0.818516	0.530419	-0.407549	-0.686484	0.492532	-0.250779	-0.521462	0.454645	-3.134918	-3.808184	3.371467	0.000000	0.000000	19.550636	5.752833	0.599826	76.424180	-22.261895	134.310692	-0.449163	-0.580101	19.770003	-22.875883	85.895576	-10.054815	163.678064	0.140591	1.213608	-41.681242	-21.830398
1.733333	1.848222	-9.248477	88.918729	0.155952	1.111698	0.480958	19.785921	2.366073	1.110054	17.148019	0.299289	31.124702	-3.144537	0.000000	17.049702	-1.089797	5.451782	12.036561	0.210078	33.026179	0.166716	0.000000	-0.531369	-0.399970	0.839257	-0.986806	-0.531961	0.891711	-0.872987	-0.972488	0.891711	-0.607302	-0.972488	0.734350	-0.493430	-0.815620	0.681897	-0.303624	-0.619554	0.629443	-3.795518	-4.524545	4.667698	0.000000	0.000000	18.713338	5.367901	-2.538279	89.499311	-28.631995	137.155842	5.594454	3.703639	22.667327	-21.252694	91.228497	-9.679626	167.956884	0.116725	1.249894	-47.457624	-22.522937
1.750000	1.728557	-8.365844	88.730787	0.156433	1.118588	0.478092	17.012757	2.200239	0.945304	14.727528	0.257044	28.738077	-3.316028	0.000000	14.676812	-0.724079	7.946472	9.935571	0.173408	30.212256	-3.439663	0.000000	-0.584381	-0.450887	1.065454	-1.085254	-0.599680	1.132045	-0.960079	-1.096288	1.132045	-0.667889	-1.096288	0.932272	-0.542656	-0.919450	0.865682	-0.333915	-0.698425	0.799091	-4.174174	-5.100529	5.925737	0.000000	0.000000	18.142333	5.197389	-5.112606	104.989273	-36.126478	139.866828	13.251505	9.488716	24.667428	-18.928640	96.523700	-9.179482	171.533848	0.127174	1.292368	-52.925200	-23.072518
1.766667	1.621160	-7.784335	88.584209	0.157103	1.124000	0.475290	14.705791	2.024126	0.647426	12.650589	0.220794	26.503782	-3.366767	0.000000	12.811996	-0.387632	10.352987	8.233427	0.143700	27.500671	-6.924427	0.000000	-0.606729	-0.497472	1.274112	-1.126756	-0.661637	1.353744	-0.996795	-1.209552	1.353744	-0.693430	-1.209552	1.114848	-0.563408	-1.014444	1.035216	-0.346685	-0.770584	0.955584	-4.333804	-5.627498	7.086227	0.000000	0.000000	17.854541	5.264676	-7.002796	122.537288	-44.350017	143.594546	21.719195	16.218402	25.846922	-16.155029	101.751522	-8.631224	174.499639	0.135032	1.334509	-57.965072	-23.421169
1.783333	1.459695	-7.509671	88.454710	0.158037	1.127925	0.472523	12.905795	1.801142	0.219060	10.972934	0.191514	24.485351	-3.257839	0.000000	11.449519	-0.040531	12.618471	6.917044	0.120725	24.921440	-10.297603	0.000000	-0.594187	-0.549002	1.466035	-1.103465	-0.730173	1.557662	-0.976190	-1.334844	1.557662	-0.679097	-1.334844	1.282780	-0.551762	-1.119525	1.191153	-0.339519	-0.850404	1.099526	-4.244221	-6.210423	8.153645	0.000000	0.000000	17.855032	5.470631	-8.499011	141.451072	-53.008142	148.527384	30.484951	23.800393	26.061252	-13.052806	106.866712	-8.051313	176.945403	0.137649	1.374622	-62.492129	-23.581141
1.800000	1.241821	-7.488879	88.367706	0.159226	1.130464	0.469832	11.576056	1.515002	-0.373958	9.701203	0.169318	22.755654	-2.958642	0.000000	10.560941	0.309883	14.451312	6.011373	0.104918	22.642734	-13.120757	0.000000	-0.552675	-0.608015	1.633968	-1.026372	-0.808660	1.736091	-0.907989	-1.478328	1.736091	-0.631652	-1.478328	1.429722	-0.513214	-1.239865	1.327599	-0.315798	-0.941816	1.225476	-3.947701	-6.877990	9.087639	0.000000	0.000000	18.138095	5.694447	-9.939138	161.203742	-61.979332	154.185685	39.528314	32.018959	25.148391	-9.784667	111.835608	-7.447598	178.874971	0.135415	1.409676	-66.421216	-23.580807
1.816667	0.921415	-7.648617	88.323714	0.160727	1.131808	0.467250	10.641347	1.139766	-1.081878	8.812213	0.153802	21.383230	-2.491918	0.000000	10.053075	0.697189	15.800041	5.471422	0.095494	20.706943	-15.353339	0.000000	-0.493656	-0.683047	1.780176	-0.916769	-0.908452	1.891437	-0.811028	-1.660760	1.891437	-0.564200	-1.660760	1.557654	-0.458409	-1.392869	1.446393	-0.282075	-1.058040	1.335132	-3.526137	-7.726764	9.900807	0.000000	0.000000	18.698606	5.879286	-11.610528	181.177063	-71.013604	160.191882	48.682884	40.591021	23.012576	-6.539205	116.644305	-6.801848	180.213110	0.130785	1.431641	-69.621434	-23.471979
1.833333	0.460915	-7.901953	88.326847	0.162591	1.132223	0.464809	9.998672	0.648066	-1.947432	8.256029	0.144095	20.451100	-1.750888	0.000000	9.809174	1.164292	16.745748	5.231389	0.091305	19.119517	-17.120988	0.000000	-0.431554	-0.780660	1.904899	-0.801439	-1.038278	2.023955	-0.709000	-1.898096	2.023955	-0.493223	-1.898096	1.666787	-0.400741	-1.591922	1.547731	-0.246590	-1.209242	1.428674	-3.082546	-8.830981	10.594477	0.000000	0.000000	19.528707	6.087661	-13.533406	200.723380	-79.880621	166.075585	57.753929	49.271725	19.817412	-3.430038	121.279453	-6.089886	180.871972	0.125432	1.430329	-71.938186	-23.324225
1.850000	-0.145829	-8.173359	88.388571	0.164895	1.131978	0.462505	9.530386	0.048794	-2.770654	7.923905	0.138298	19.949721	-0.963186	0.000000	9.745435	1.687241	16.857969	5.273985	0.092048	17.994540	-17.819145	0.000000	-0.376089	-0.903265	2.007669	-0.698435	-1.201342	2.133148	-0.617876	-2.196197	2.133148	-0.429832	-2.196197	1.756710	-0.349236	-1.841937	1.631231	-0.214897	-1.399157	1.505752	-2.686365	-10.217909	11.166053	0.000000	0.000000	20.551312	6.372560	-15.672225	219.202904	-88.336611	171.465949	66.538178	57.761704	15.702313	-0.520832	125.698565	-5.288853	180.726736	0.120308	1.401709	-73.194989	-23.226840
1.866667	-0.900155	-8.424601	88.513100	0.167664	1.131321	0.460180	9.145639	-0.658550	-3.504366	7.702039	0.134426	19.875624	-0.132592	0.000000	9.780686	2.272121	16.073425	5.524677	0.096424	17.331440	-17.353321	0.000000	-0.325720	-1.052129	2.091689	-0.604894	-1.399331	2.222419	-0.535125	-2.558146	2.222419	-0.372265	-2.558146	1.830228	-0.302463	-2.145501	1.699497	-0.186116	-1.629748	1.568767	-2.326585	-11.901892	11.633345	0.000000	0.000000	21.526834	6.765048	-18.004478	235.884563	-96.111922	176.025375	74.825898	65.789025	10.797915	2.156895	129.800974	-4.377368	179.696461	0.116283	1.343881	-73.219786	-23.263300
1.883333	-1.800277	-8.611936	88.700366	0.170892	1.130495	0.457783	8.767555	-1.476700	-4.110244	7.508426	0.131047	20.193430	0.732290	0.000000	9.835511	2.935059	14.420995	5.909602	0.103142	17.086290	-15.731527	0.000000	-0.283783	-1.227857	2.161156	-0.527013	-1.633050	2.296229	-0.466227	-2.985412	2.296229	-0.324336	-2.985412	1.891012	-0.263521	-2.503847	1.755940	-0.162154	-1.901951	1.620867	-2.027034	-13.889768	12.019704	0.000000	0.000000	22.363343	7.267096	-20.547563	250.075120	-102.924698	179.456600	82.386603	73.086981	5.290492	4.539564	133.505363	-3.339219	177.926751	0.112486	1.258487	-72.175490	-23.411199
